<svg width="430" height="932" viewBox="0 0 430 932" fill="none" xmlns="http://www.w3.org/2000/svg">
<g clip-path="url(#clip0_1510_67)">
<rect width="430" height="932" fill="black"/>
<path fill-rule="evenodd" clip-rule="evenodd" d="M167.335 944.384L147.153 944.316C128.125 944.253 118.609 944.221 112.721 938.288C106.832 932.355 106.859 922.844 106.922 903.816L106.989 883.634C107.053 864.607 107.085 855.091 113.018 849.202C118.951 843.313 128.513 843.34 147.641 843.404C150.698 843.414 153.145 843.422 155.209 843.515C155.14 843.918 155.105 844.328 155.104 844.746L155.006 859.045C154.987 864.58 154.971 869.474 155.487 873.417C156.048 877.692 157.351 881.97 160.831 885.473C164.301 888.967 168.575 890.303 172.847 890.892C176.786 891.435 181.68 891.451 187.215 891.47L207.66 891.538C207.868 894.233 207.857 897.543 207.842 901.948L207.835 904.153C207.772 923.18 207.74 932.696 201.807 938.585C195.873 944.474 186.362 944.447 167.335 944.384Z" fill="#2AFC9C"/>
<path d="M194.582 871.903L174.661 853.859C168.992 848.718 166.16 846.146 162.668 844.797L162.576 858.592C162.537 870.484 162.517 876.433 166.198 880.139C169.879 883.845 175.828 883.864 187.72 883.904L205.784 883.964C203.969 880.406 200.699 877.449 194.582 871.903Z" fill="#2AFC9C"/>
<path fill-rule="evenodd" clip-rule="evenodd" d="M297.259 806.551L277.077 806.484C258.05 806.42 248.533 806.389 242.645 800.455C236.756 794.522 236.783 785.011 236.846 765.984L236.913 745.801C236.977 726.774 237.009 717.258 242.942 711.369C248.875 705.481 258.437 705.507 277.565 705.571C280.622 705.581 283.069 705.59 285.133 705.682C285.064 706.086 285.029 706.496 285.028 706.913L284.93 721.212C284.911 726.747 284.895 731.642 285.412 735.584C285.972 739.86 287.275 744.138 290.755 747.641C294.225 751.134 298.499 752.47 302.771 753.06C306.71 753.603 311.604 753.619 317.139 753.637L337.584 753.706C337.792 756.401 337.781 759.711 337.767 764.116L337.759 766.32C337.696 785.348 337.664 794.864 331.731 800.752C325.798 806.641 316.286 806.615 297.259 806.551Z" fill="#FFF39F"/>
<path d="M324.505 734.07L304.585 716.026C298.915 710.885 296.083 708.313 292.591 706.964L292.5 720.759C292.46 732.651 292.44 738.6 296.121 742.306C299.802 746.012 305.751 746.031 317.644 746.071L335.707 746.131C333.892 742.573 330.623 739.616 324.505 734.07Z" fill="#FFF39F"/>
<path fill-rule="evenodd" clip-rule="evenodd" d="M167.335 806.55L147.152 806.483C128.125 806.419 118.609 806.388 112.72 800.454C106.831 794.521 106.858 785.01 106.921 765.983L106.989 745.8C107.052 726.773 107.084 717.257 113.017 711.368C118.95 705.48 128.512 705.506 147.64 705.57C150.698 705.58 153.145 705.589 155.208 705.681C155.14 706.085 155.105 706.495 155.103 706.912L155.005 721.211C154.987 726.746 154.97 731.641 155.487 735.583C156.048 739.859 157.35 744.137 160.83 747.64C164.3 751.133 168.575 752.469 172.846 753.059C176.785 753.602 181.68 753.618 187.215 753.636L207.66 753.705C207.868 756.4 207.857 759.71 207.842 764.115L207.834 766.32C207.771 785.347 207.739 794.863 201.806 800.751C195.873 806.64 186.362 806.614 167.335 806.55Z" fill="white"/>
<path d="M194.581 734.068L174.66 716.024C168.991 710.883 166.159 708.311 162.667 706.962L162.575 720.757C162.536 732.649 162.516 738.598 166.197 742.304C169.878 746.01 175.827 746.029 187.719 746.069L205.783 746.129C203.968 742.571 200.698 739.614 194.581 734.068Z" fill="white"/>
<path fill-rule="evenodd" clip-rule="evenodd" d="M298.052 945.508L277.87 945.63C258.843 945.745 249.327 945.803 243.383 939.925C237.438 934.048 237.376 924.537 237.261 905.51L237.138 885.328C237.023 866.301 236.965 856.785 242.843 850.84C248.721 844.896 258.282 844.833 277.41 844.717C280.467 844.699 282.915 844.684 284.979 844.757C284.914 845.161 284.883 845.572 284.885 845.989L284.921 860.289C284.955 865.824 284.985 870.718 285.538 874.655C286.139 878.925 287.482 883.191 290.995 886.661C294.497 890.122 298.784 891.418 303.061 891.967C307.005 892.473 311.899 892.443 317.434 892.41L337.879 892.286C338.112 894.979 338.132 898.289 338.159 902.694L338.172 904.899C338.288 923.926 338.345 933.442 332.468 939.386C326.59 945.33 317.079 945.393 298.052 945.508Z" fill="#9740FA"/>
<path d="M324.616 872.774L304.527 854.918C298.81 849.831 295.953 847.285 292.449 845.969L292.487 859.764C292.559 871.656 292.595 877.605 296.311 881.276C300.026 884.947 305.975 884.911 317.868 884.839L335.931 884.73C334.083 881.189 330.785 878.262 324.616 872.774Z" fill="#9740FA"/>
<path fill-rule="evenodd" clip-rule="evenodd" d="M36.2819 944.384L16.0993 944.316C-2.92789 944.253 -12.444 944.221 -18.3327 938.288C-24.2215 932.355 -24.1948 922.844 -24.1313 903.816L-24.064 883.634C-24.0005 864.607 -23.9688 855.091 -18.0355 849.202C-12.1023 843.313 -2.5408 843.34 16.5873 843.404C19.6449 843.414 22.0921 843.422 24.1555 843.515C24.0868 843.918 24.0518 844.328 24.0504 844.746L23.9523 859.045C23.9338 864.58 23.9175 869.474 24.4341 873.417C24.9951 877.692 26.2977 881.97 29.7777 885.473C33.2476 888.967 37.5219 890.303 41.7936 890.892C45.7325 891.435 50.6268 891.451 56.1619 891.47L76.6069 891.538C76.8148 894.233 76.8038 897.543 76.7891 901.948L76.7817 904.153C76.7183 923.18 76.6865 932.696 70.7533 938.585C64.8201 944.474 55.309 944.447 36.2819 944.384Z" fill="#22CDFB"/>
<path d="M63.528 871.903L43.6072 853.859C37.9379 848.718 35.1057 846.146 31.6135 844.797L31.5221 858.592C31.4824 870.484 31.4626 876.433 35.1437 880.139C38.8248 883.845 44.7736 883.864 56.6662 883.904L74.7296 883.964C72.9149 880.406 69.6451 877.449 63.528 871.903Z" fill="#22CDFB"/>
<path fill-rule="evenodd" clip-rule="evenodd" d="M36.2821 806.553L16.0995 806.485C-2.92764 806.422 -12.4437 806.39 -18.3325 800.457C-24.2212 794.524 -24.1945 785.012 -24.1311 765.985L-24.0637 745.803C-24.0003 726.776 -23.9685 717.259 -18.0353 711.371C-12.1021 705.482 -2.54056 705.509 16.5875 705.573C19.6452 705.583 22.0923 705.591 24.1557 705.684C24.0871 706.087 24.0521 706.497 24.0507 706.914L23.9525 721.214C23.9341 726.749 23.9177 731.643 24.4344 735.585C24.9953 739.861 26.298 744.139 29.7779 747.642C33.2478 751.135 37.5221 752.472 41.7939 753.061C45.7328 753.604 50.627 753.62 56.1621 753.639L76.6071 753.707C76.8151 756.402 76.804 759.712 76.7893 764.117L76.782 766.322C76.7185 785.349 76.6868 794.865 70.7535 800.754C64.8203 806.643 55.3093 806.616 36.2821 806.553Z" fill="#FB6769"/>
<path d="M63.5288 734.072L43.608 716.027C37.9386 710.887 35.1064 708.314 31.6143 706.965L31.5228 720.76C31.4832 732.653 31.4633 738.602 35.1444 742.307C38.8255 746.013 44.7743 746.033 56.6669 746.073L74.7304 746.133C72.9157 742.575 69.6458 739.617 63.5288 734.072Z" fill="#FB6769"/>
<path fill-rule="evenodd" clip-rule="evenodd" d="M297.259 669.848L277.077 669.781C258.05 669.717 248.533 669.685 242.645 663.752C236.756 657.819 236.783 648.308 236.846 629.281L236.913 609.098C236.977 590.071 237.009 580.555 242.942 574.666C248.875 568.777 258.437 568.804 277.565 568.868C280.622 568.878 283.069 568.886 285.133 568.979C285.064 569.383 285.029 569.793 285.028 570.21L284.93 584.509C284.911 590.044 284.895 594.938 285.412 598.881C285.972 603.156 287.275 607.435 290.755 610.938C294.225 614.431 298.499 615.767 302.771 616.357C306.71 616.9 311.604 616.916 317.139 616.934L337.584 617.003C337.792 619.698 337.781 623.008 337.767 627.412L337.759 629.617C337.696 648.645 337.664 658.161 331.731 664.049C325.798 669.938 316.286 669.911 297.259 669.848Z" fill="#D12196"/>
<path d="M324.505 597.368L304.584 579.324C298.915 574.184 296.083 571.611 292.591 570.262L292.499 584.057C292.46 595.95 292.44 601.898 296.121 605.604C299.802 609.31 305.751 609.33 317.643 609.369L335.707 609.43C333.892 605.871 330.622 602.914 324.505 597.368Z" fill="#D12196"/>
<path fill-rule="evenodd" clip-rule="evenodd" d="M167.335 669.849L147.152 669.782C128.125 669.718 118.609 669.686 112.72 663.753C106.831 657.82 106.858 648.309 106.922 629.282L106.989 609.099C107.052 590.072 107.084 580.556 113.017 574.667C118.951 568.778 128.512 568.805 147.64 568.869C150.698 568.879 153.145 568.887 155.208 568.98C155.14 569.383 155.105 569.794 155.103 570.211L155.005 584.51C154.987 590.045 154.97 594.939 155.487 598.882C156.048 603.157 157.351 607.436 160.831 610.939C164.3 614.432 168.575 615.768 172.846 616.358C176.785 616.9 181.68 616.917 187.215 616.935L207.66 617.003C207.868 619.699 207.857 623.009 207.842 627.413L207.835 629.618C207.771 648.645 207.739 658.162 201.806 664.05C195.873 669.939 186.362 669.912 167.335 669.849Z" fill="#9740FA"/>
<path d="M194.581 597.368L174.661 579.324C168.991 574.184 166.159 571.611 162.667 570.262L162.575 584.057C162.536 595.95 162.516 601.898 166.197 605.604C169.878 609.31 175.827 609.33 187.72 609.369L205.783 609.43C203.968 605.871 200.698 602.914 194.581 597.368Z" fill="#9740FA"/>
<path fill-rule="evenodd" clip-rule="evenodd" d="M36.2821 669.849L16.0995 669.782C-2.92764 669.718 -12.4437 669.686 -18.3325 663.753C-24.2212 657.82 -24.1945 648.309 -24.1311 629.282L-24.0637 609.099C-24.0003 590.072 -23.9685 580.556 -18.0353 574.667C-12.1021 568.778 -2.54056 568.805 16.5875 568.869C19.6452 568.879 22.0923 568.887 24.1557 568.98C24.0871 569.383 24.0521 569.794 24.0507 570.211L23.9525 584.51C23.9341 590.045 23.9177 594.939 24.4344 598.882C24.9953 603.157 26.298 607.436 29.7779 610.939C33.2478 614.432 37.5221 615.768 41.7939 616.358C45.7328 616.9 50.627 616.917 56.1621 616.935L76.6071 617.003C76.8151 619.699 76.804 623.009 76.7893 627.413L76.782 629.618C76.7185 648.645 76.6868 658.162 70.7535 664.05C64.8203 669.939 55.3093 669.912 36.2821 669.849Z" fill="#FCAF2A"/>
<path d="M63.5288 597.368L43.608 579.324C37.9386 574.184 35.1064 571.611 31.6143 570.262L31.5228 584.057C31.4832 595.95 31.4633 601.898 35.1444 605.604C38.8255 609.31 44.7743 609.33 56.6669 609.369L74.7304 609.43C72.9157 605.871 69.6458 602.914 63.5288 597.368Z" fill="#FCAF2A"/>
</g>
<defs>
<clipPath id="clip0_1510_67">
<rect width="430" height="932" fill="white"/>
</clipPath>
</defs>
</svg>
